<?xml version="1.0" encoding="UTF-8" standalone="no"?>
<!-- Created with Inkscape (http://www.inkscape.org/) -->

<svg
   width="120"
   height="180.00003"
   viewBox="0 0 31.749998 47.625009"
   version="1.1"
   id="svg1"
   xmlns:xlink="http://www.w3.org/1999/xlink"
   xmlns="http://www.w3.org/2000/svg"
   xmlns:svg="http://www.w3.org/2000/svg">
  <defs
     id="defs1">
    <linearGradient
       id="linearGradient10">
      <stop
         style="stop-color:#ec4067;stop-opacity:1;"
         offset="0"
         id="stop10" />
      <stop
         style="stop-color:#a01a7d;stop-opacity:1;"
         offset="1"
         id="stop11" />
    </linearGradient>
    <linearGradient
       xlink:href="#linearGradient10"
       id="linearGradient11"
       x1="51.758202"
       y1="83.43824"
       x2="80.53347"
       y2="70.020103"
       gradientUnits="userSpaceOnUse"
       gradientTransform="translate(-50.270832,-52.916666)" />
  </defs>
  <path
     id="rect8-9-8-5"
     style="fill:url(#linearGradient11);fill-opacity:1;stroke-width:0.134549"
     d="M 13.229167,1.3492093e-8 C 7.3659965,1.3492093e-8 2.6458335,4.7201639 2.6458335,10.583334 v 7.0559 c 0,0.565553 0.04404,1.120347 0.128674,1.661397 C 1.0499955,21.182105 4.7653883e-7,23.69316 4.7653883e-7,26.458333 V 37.041667 C 4.7653883e-7,42.904827 4.7201665,47.625004 10.583334,47.625004 H 21.166667 C 27.029834,47.625004 31.75,42.904827 31.75,37.041667 V 26.458333 c 0,-2.765167 -1.050001,-5.276229 -2.774507,-7.157702 0.08463,-0.541065 0.128674,-1.095853 0.128674,-1.661397 v -7.0559 C 29.104167,4.7201639 24.383994,1.3492088e-8 18.520834,1.3492088e-8 Z M 12.788367,3.9687499 h 6.173267 c 3.66447,0 6.614583,2.950104 6.614583,6.6145841 v 6.24458 C 24.235173,16.215658 22.742187,15.875 21.166667,15.875 H 10.583334 c -1.5755185,0 -3.0685075,0.340659 -4.4095505,0.952914 v -6.24458 c 0,-3.6644801 2.950103,-6.6145841 6.6145835,-6.6145841 z m 3.086634,18.2810551 a 6.1736114,6.1736289 0 0 1 6.173783,6.173266 6.1736114,6.1736289 0 0 1 -3.08715,5.346444 v 4.710823 c 0,1.53457 -1.235277,2.769857 -2.769857,2.769857 h -0.633553 c -1.534568,0 -2.769857,-1.235287 -2.769857,-2.769857 V 33.769515 A 6.1736114,6.1736289 0 0 1 9.7012165,28.423071 6.1736114,6.1736289 0 0 1 15.875001,22.249805 Z" />
</svg>
