<svg xmlns="http://www.w3.org/2000/svg" xmlns:xlink="http://www.w3.org/1999/xlink" width="239.76538" height="240.38503" viewBox="0 0 63.43792 63.601873">
  <defs>
    <linearGradient id="a">
      <stop offset="0" stop-color="var(--color-stop-1, #ec4067)"/>
      <stop offset="1" stop-color="var(--color-stop-2, #a01a7d)"/>
    </linearGradient>
    <linearGradient xlink:href="#a" id="b" x1="51.758202" x2="80.53347" y1="83.43824" y2="70.020103" gradientUnits="userSpaceOnUse"/>
  </defs>
  <path fill="var(--fill-color, #f8f8f8)" d="M24.736715 23.232806c1.5175 5.663388 7.298497 9.001043 12.961882 7.483544l17.88975-4.793544c5.663383-1.517499 9.001063-7.298494 7.483553-12.961881l-1.36959-5.111361c-1.517498-5.663387-7.2985-9.001042-12.961882-7.483543L35.070542 4.028856c.347536.173027.683871.367711 1.010276.577799l.000631.000359c.000332.00017.000961.000561.0012.000707l.000634.000369.000634.000368.000631.000359c.101785.06559.1961.141704.295615.210761l.000634.000368.000499-.000133.000132.000492c.02939.02039.05787.04206.08655.06346.05139.03644.10129.07483.152061.112269.132903.09788.270198.189256.398539.293387.116412.09445.225462.1973.337928.296791l.000631.000359c.00023.000208.000542.000621.000758.000832.179055.158426.356501.318742.524935.489569l.000633.000368.000135.000503c.112702.114336.218943.234649.326609.354382.000259.000293.000519.000617.000758.000833.000515.000576.000952.00078.0015.0017.08046.08954.155947.183977.233912.275983.02904.03466.05803.06924.08761.103316.04018.04918.08356.09521.122903.145219.04801.06105.103405.114798.150142.176981l10.960466-2.936849c3.539614-.948436 7.152739 1.137598 8.101176 4.677214l1.369585 5.111361c.948437 3.539616-1.137603 7.152737-4.677217 8.101173l-17.889688 4.793528c-3.539615.948437-7.152739-1.137598-8.101176-4.677214l-.619256-2.311093-.750329-2.800267-.0056-.02096-.679175-2.534715-3.833518 1.027188.679175 2.534715.0056.02096.750329 2.800267z"/>
  <path fill="var(--fill-color, #f8f8f8)" d="M38.701204 14.012697c-1.517501-5.663391-7.298499-9.001047-12.961882-7.483548L7.849571 11.322693c-5.663383 1.517499-9.00105 7.298494-7.483549 12.961885l1.369582 5.111351c1.5175 5.663387 7.298502 9.001042 12.961885 7.483543l13.669885-3.662835c-.347535-.173027-.683871-.36771-1.010276-.577799l-.000631-.000359c-.000332-.00017-.000961-.00056-.0012-.000707l-.000632-.000359-.000633-.000369-.000635-.000368c-.101785-.06559-.1961-.141704-.295613-.210751l-.000634-.000368-.000499.000133-.000135-.000502c-.02939-.02039-.05787-.04206-.08655-.06346-.05139-.03644-.101289-.07484-.15206-.11227-.132901-.09787-.270197-.189256-.398539-.293387-.116412-.09445-.225462-.197299-.337925-.296782l-.000631-.000358c-.000231-.000208-.000541-.000621-.000758-.000832-.179055-.158426-.356498-.318733-.524935-.489569l-.000631-.000359-.000135-.000502c-.112702-.114336-.218942-.234649-.326608-.354383-.00026-.000293-.00052-.000616-.000759-.000832-.000513-.000566-.000952-.00078-.0015-.0017-.08046-.08953-.155949-.183987-.233912-.275983-.02904-.03467-.05803-.06924-.08761-.103317-.04018-.04918-.08356-.09521-.122903-.145218-.04798-.06096-.103405-.114798-.150142-.176981L13.670415 33.04613c-3.539615.948437-7.15274-1.137597-8.101177-4.677213l-1.369585-5.111361c-.948438-3.53962 1.137602-7.152741 4.677217-8.101178l17.889689-4.793527c3.539615-.948437 7.152738 1.137598 8.101176 4.677217l.619256 2.311094.750329 2.800267.0056.02096.679173 2.534705 3.833518-1.027188-.679172-2.534705-.0056-.02096-.750329-2.800267z"/>
  <path fill="url(#b)" d="M63.499999 52.916666c-5.86317 0-10.583333 4.720164-10.583333 10.583334v7.0559c0 .565553.04404 1.120347.128674 1.661397-1.724512 1.881474-2.774507 4.392529-2.774507 7.157702v10.583334c0 5.86316 4.720166 10.583337 10.583333 10.583337h10.583333c5.863167 0 10.583333-4.720177 10.583333-10.583337V79.374999c0-2.765167-1.050001-5.276229-2.774507-7.157702.08463-.541065.128674-1.095853.128674-1.661397V63.5c0-5.86317-4.720173-10.583334-10.583333-10.583334zm-.4408 3.96875h6.173267c3.66447 0 6.614583 2.950104 6.614583 6.614584v6.24458c-1.341044-.612256-2.83403-.952914-4.40955-.952914H60.854166c-1.575518 0-3.068507.340659-4.40955.952914V63.5c0-3.66448 2.950103-6.614584 6.614583-6.614584zm3.086634 18.281055a6.1736114 6.1736289 0 0 1 6.173783 6.173266 6.1736114 6.1736289 0 0 1-3.08715 5.346444v4.710823c0 1.53457-1.235277 2.769857-2.769857 2.769857h-.633553c-1.534568 0-2.769857-1.235287-2.769857-2.769857v-4.710823a6.1736114 6.1736289 0 0 1-3.08715-5.346444 6.1736114 6.1736289 0 0 1 6.173784-6.173266z" transform="translate(-34.42687 -36.939803)"/>
  <path fill="var(--fill-color, #f8f8f8)" d="M28.367359 33.216465c-.347536-.173027-.683869-.3677-1.010274-.577789l-.000633-.000369c-.000332-.00017-.001-.000581-.0012-.000707l-.000634-.000369-.000633-.000368-.000634-.000369c-.101785-.06559-.196101-.141704-.295613-.210751l-.000634-.000368-.000499.000133-.000132-.000492c-.02939-.02039-.05787-.04208-.08656-.06348-.05139-.03644-.10129-.07483-.152061-.112269-.1329-.09787-.270194-.189247-.398536-.293378-.116412-.09445-.225463-.197309-.337927-.296791l-.000634-.000369-.000634-.000368c-.179055-.158425-.356497-.318732-.524932-.489559l-.000758-.000832-.000132-.000493c-.112702-.114336-.218813-.234166-.326479-.353899l-.000759-.000833c-.000256-.000283-.000669-.0012-.000912-.0014l-.000634-.000369c-.08047-.08954-.155947-.183977-.23391-.275973-.02904-.03467-.05803-.06924-.08761-.103317-.04018-.04918-.08356-.09521-.122903-.145218-.04798-.06096-.103405-.114798-.150142-.176981l-10.960467 2.936848c-1.690532.452977-3.397921.213419-4.82368-.545735l-4.736991 1.269273c2.575881 2.84665 6.610877 4.175071 10.587724 3.109478zm9.797527-6.733807-1.493475.400175c-3.539615.948437-7.152739-1.137601-8.101177-4.677216l-.619255-2.311093-.750329-2.800265-.0056-.02096-.679175-2.534714-3.833518 1.027188.679175 2.534714.0056.02096.750329 2.800265.619255 2.311093c1.5175 5.663387 7.298499 9.001046 12.961883 7.483546l1.493475-.400175z"/>
</svg>
